<svg width="32" height="32" viewBox="0 0 32 32" fill="none" xmlns="http://www.w3.org/2000/svg">
<path d="M17.3333 28H4.8C4.58783 28 4.38434 27.9157 4.23431 27.7657C4.08429 27.6157 4 27.4122 4 27.2V4.8C4 4.58783 4.08429 4.38434 4.23431 4.23431C4.38434 4.08429 4.58783 4 4.8 4H27.2C27.4122 4 27.6157 4.08429 27.7657 4.23431C27.9157 4.38434 28 4.58783 28 4.8V17.3333M21.3333 25.3333H25.3333M25.3333 25.3333H29.3333M25.3333 25.3333V21.3333M25.3333 25.3333V29.3333" stroke="rgb(168 168 168)" stroke-width="2" stroke-linecap="round" stroke-linejoin="round"/>
<path d="M13.1973 11.3508C13.0758 11.2812 12.938 11.2448 12.7979 11.2451C12.6579 11.2455 12.5203 11.2826 12.3991 11.3528C12.2779 11.423 12.1772 11.5238 12.1072 11.6451C12.0371 11.7664 12.0002 11.904 12 12.0441V19.9548C11.9999 20.095 12.0367 20.2327 12.1067 20.3542C12.1766 20.4757 12.2773 20.5767 12.3985 20.6471C12.5198 20.7174 12.6574 20.7547 12.7976 20.7551C12.9378 20.7555 13.0757 20.7191 13.1973 20.6494L20.1173 16.6948C20.2398 16.6248 20.3416 16.5237 20.4124 16.4017C20.4833 16.2797 20.5205 16.1412 20.5205 16.0001C20.5205 15.859 20.4833 15.7205 20.4124 15.5985C20.3416 15.4765 20.2398 15.3754 20.1173 15.3054L13.1973 11.3508Z" stroke="rgb(168 168 168)" stroke-width="2" stroke-linecap="round" stroke-linejoin="round"/>
</svg>
